<?xml version="1.0" encoding="UTF-8"?>
<!DOCTYPE svg
PUBLIC "-//W3C//DTD SVG 1.1//EN"
       "http://www.w3.org/Graphics/SVG/1.1/DTD/svg11.dtd">
<svg viewBox="65 0 1312 629" width="1247px" height="629px" xmlns="http://www.w3.org/2000/svg" version="1.1">
   <line x1="658" y1="536" x2="648" y2="536" style="stroke:#333;stroke-width:1;"/>
   <line x1="648" y1="536" x2="658" y2="536" style="stroke:#333;stroke-width:1;"/>
   <line x1="648" y1="536" x2="648" y2="536" style="stroke:#333;stroke-width:1;"/>
   <line x1="650.5" y1="536" x2="654.03553390593" y2="539.53553390593" style="stroke:#333;stroke-width:2;"/>
   <line x1="650.5" y1="536" x2="654.03553390593" y2="532.46446609407" style="stroke:#333;stroke-width:2;"/>
   <line x1="653" y1="536" x2="649.46446609407" y2="539.53553390593" style="stroke:#333;stroke-width:2;"/>
   <line x1="653" y1="536" x2="649.46446609407" y2="532.46446609407" style="stroke:#333;stroke-width:2;"/>
   <line x1="658" y1="596" x2="648" y2="596" style="stroke:#0bf;stroke-width:1;"/>
   <line x1="628" y1="179" x2="638" y2="179" style="stroke:#0bf;stroke-width:1;"/>
   <line x1="648" y1="596" x2="628" y2="179" style="stroke:#0bf;stroke-width:1;"/>
   <line x1="650.5" y1="596" x2="654.03553390593" y2="599.53553390593" style="stroke:#0bf;stroke-width:2;"/>
   <line x1="650.5" y1="596" x2="654.03553390593" y2="592.46446609407" style="stroke:#0bf;stroke-width:2;"/>
   <line x1="633" y1="179" x2="629.46446609407" y2="182.53553390593" style="stroke:#0bf;stroke-width:2;"/>
   <line x1="633" y1="179" x2="629.46446609407" y2="175.46446609407" style="stroke:#0bf;stroke-width:2;"/>
   <line x1="80" y1="80" x2="70" y2="80" style="stroke:#bbb;stroke-width:1;"/>
   <line x1="70" y1="80" x2="80" y2="80" style="stroke:#bbb;stroke-width:1;"/>
   <line x1="70" y1="80" x2="70" y2="80" style="stroke:#bbb;stroke-width:1;"/>
   <line x1="72.5" y1="80" x2="76.035533905933" y2="83.535533905933" style="stroke:#bbb;stroke-width:2;"/>
   <line x1="72.5" y1="80" x2="76.035533905933" y2="76.464466094067" style="stroke:#bbb;stroke-width:2;"/>
   <line x1="75" y1="80" x2="71.464466094067" y2="83.535533905933" style="stroke:#bbb;stroke-width:2;"/>
   <line x1="75" y1="80" x2="71.464466094067" y2="76.464466094067" style="stroke:#bbb;stroke-width:2;"/>
   <line x1="212" y1="140" x2="222" y2="140" style="stroke:#333;stroke-width:1;"/>
   <line x1="837" y1="336" x2="847" y2="336" style="stroke:#333;stroke-width:1;"/>
   <line x1="222" y1="140" x2="837" y2="336" style="stroke:#333;stroke-width:1;"/>
   <line x1="219.5" y1="140" x2="215.96446609407" y2="143.53553390593" style="stroke:#333;stroke-width:2;"/>
   <line x1="219.5" y1="140" x2="215.96446609407" y2="136.46446609407" style="stroke:#333;stroke-width:2;"/>
   <line x1="842" y1="336" x2="838.46446609407" y2="339.53553390593" style="stroke:#333;stroke-width:2;"/>
   <line x1="842" y1="336" x2="838.46446609407" y2="332.46446609407" style="stroke:#333;stroke-width:2;"/>
   <line x1="638" y1="179" x2="628" y2="179" style="stroke:#b0b;stroke-width:1;"/>
   <line x1="628" y1="179" x2="638" y2="179" style="stroke:#b0b;stroke-width:1;"/>
   <line x1="628" y1="179" x2="628" y2="179" style="stroke:#b0b;stroke-width:1;"/>
   <line x1="630.5" y1="179" x2="634.03553390593" y2="182.53553390593" style="stroke:#b0b;stroke-width:2;"/>
   <line x1="630.5" y1="179" x2="634.03553390593" y2="175.46446609407" style="stroke:#b0b;stroke-width:2;"/>
   <line x1="633" y1="179" x2="629.46446609407" y2="182.53553390593" style="stroke:#b0b;stroke-width:2;"/>
   <line x1="633" y1="179" x2="629.46446609407" y2="175.46446609407" style="stroke:#b0b;stroke-width:2;"/>
   <line x1="638" y1="259" x2="628" y2="259" style="stroke:#0b0;stroke-width:1;"/>
   <line x1="628" y1="179" x2="638" y2="179" style="stroke:#0b0;stroke-width:1;"/>
   <line x1="628" y1="259" x2="628" y2="179" style="stroke:#0b0;stroke-width:1;"/>
   <line x1="630.5" y1="259" x2="634.03553390593" y2="262.53553390593" style="stroke:#0b0;stroke-width:2;"/>
   <line x1="630.5" y1="259" x2="634.03553390593" y2="255.46446609407" style="stroke:#0b0;stroke-width:2;"/>
   <line x1="633" y1="179" x2="629.46446609407" y2="182.53553390593" style="stroke:#0b0;stroke-width:2;"/>
   <line x1="633" y1="179" x2="629.46446609407" y2="175.46446609407" style="stroke:#0b0;stroke-width:2;"/>
   <line x1="847" y1="336" x2="837" y2="336" style="stroke:#333;stroke-width:1;"/>
   <line x1="837" y1="336" x2="847" y2="336" style="stroke:#333;stroke-width:1;"/>
   <line x1="837" y1="336" x2="837" y2="336" style="stroke:#333;stroke-width:1;"/>
   <line x1="839.5" y1="336" x2="843.03553390593" y2="339.53553390593" style="stroke:#333;stroke-width:2;"/>
   <line x1="839.5" y1="336" x2="843.03553390593" y2="332.46446609407" style="stroke:#333;stroke-width:2;"/>
   <line x1="842" y1="336" x2="838.46446609407" y2="339.53553390593" style="stroke:#333;stroke-width:2;"/>
   <line x1="842" y1="336" x2="838.46446609407" y2="332.46446609407" style="stroke:#333;stroke-width:2;"/>
   <line x1="847" y1="416" x2="837" y2="416" style="stroke:#333;stroke-width:1;"/>
   <line x1="497" y1="364" x2="487" y2="364" style="stroke:#333;stroke-width:1;"/>
   <line x1="837" y1="416" x2="497" y2="364" style="stroke:#333;stroke-width:1;"/>
   <line x1="839.5" y1="416" x2="843.03553390593" y2="419.53553390593" style="stroke:#333;stroke-width:2;"/>
   <line x1="839.5" y1="416" x2="843.03553390593" y2="412.46446609407" style="stroke:#333;stroke-width:2;"/>
   <line x1="492" y1="364" x2="495.53553390593" y2="367.53553390593" style="stroke:#333;stroke-width:2;"/>
   <line x1="492" y1="364" x2="495.53553390593" y2="360.46446609407" style="stroke:#333;stroke-width:2;"/>
   <line x1="428" y1="45" x2="418" y2="45" style="stroke:#c00;stroke-width:1;"/>
   <line x1="418" y1="45" x2="428" y2="45" style="stroke:#c00;stroke-width:1;"/>
   <line x1="418" y1="45" x2="418" y2="45" style="stroke:#c00;stroke-width:1;"/>
   <line x1="420.5" y1="45" x2="424.03553390593" y2="48.535533905933" style="stroke:#c00;stroke-width:2;"/>
   <line x1="420.5" y1="45" x2="424.03553390593" y2="41.464466094067" style="stroke:#c00;stroke-width:2;"/>
   <line x1="423" y1="45" x2="419.46446609407" y2="48.535533905933" style="stroke:#c00;stroke-width:2;"/>
   <line x1="423" y1="45" x2="419.46446609407" y2="41.464466094067" style="stroke:#c00;stroke-width:2;"/>
   <line x1="428" y1="165" x2="418" y2="165" style="stroke:#c00;stroke-width:1;"/>
   <line x1="345" y1="364" x2="355" y2="364" style="stroke:#c00;stroke-width:1;"/>
   <line x1="418" y1="165" x2="345" y2="364" style="stroke:#c00;stroke-width:1;"/>
   <line x1="420.5" y1="165" x2="424.03553390593" y2="168.53553390593" style="stroke:#c00;stroke-width:2;"/>
   <line x1="420.5" y1="165" x2="424.03553390593" y2="161.46446609407" style="stroke:#c00;stroke-width:2;"/>
   <line x1="350" y1="364" x2="346.46446609407" y2="367.53553390593" style="stroke:#c00;stroke-width:2;"/>
   <line x1="350" y1="364" x2="346.46446609407" y2="360.46446609407" style="stroke:#c00;stroke-width:2;"/>
   <line x1="428" y1="145" x2="418" y2="145" style="stroke:#b0b;stroke-width:1;"/>
   <line x1="345" y1="364" x2="355" y2="364" style="stroke:#b0b;stroke-width:1;"/>
   <line x1="418" y1="145" x2="345" y2="364" style="stroke:#b0b;stroke-width:1;"/>
   <line x1="420.5" y1="145" x2="424.03553390593" y2="148.53553390593" style="stroke:#b0b;stroke-width:2;"/>
   <line x1="420.5" y1="145" x2="424.03553390593" y2="141.46446609407" style="stroke:#b0b;stroke-width:2;"/>
   <line x1="350" y1="364" x2="346.46446609407" y2="367.53553390593" style="stroke:#b0b;stroke-width:2;"/>
   <line x1="350" y1="364" x2="346.46446609407" y2="360.46446609407" style="stroke:#b0b;stroke-width:2;"/>
   <line x1="271" y1="547" x2="281" y2="547" style="stroke:#c00;stroke-width:1;"/>
   <line x1="648" y1="536" x2="658" y2="536" style="stroke:#c00;stroke-width:1;"/>
   <line x1="281" y1="547" x2="648" y2="536" style="stroke:#c00;stroke-width:1;"/>
   <line x1="278.5" y1="547" x2="274.96446609407" y2="550.53553390593" style="stroke:#c00;stroke-width:2;"/>
   <line x1="278.5" y1="547" x2="274.96446609407" y2="543.46446609407" style="stroke:#c00;stroke-width:2;"/>
   <line x1="653" y1="536" x2="649.46446609407" y2="539.53553390593" style="stroke:#c00;stroke-width:2;"/>
   <line x1="653" y1="536" x2="649.46446609407" y2="532.46446609407" style="stroke:#c00;stroke-width:2;"/>
   <line x1="139" y1="447" x2="129" y2="447" style="stroke:#c00;stroke-width:1;"/>
   <line x1="129" y1="447" x2="139" y2="447" style="stroke:#c00;stroke-width:1;"/>
   <line x1="129" y1="447" x2="129" y2="447" style="stroke:#c00;stroke-width:1;"/>
   <line x1="131.5" y1="447" x2="135.03553390593" y2="450.53553390593" style="stroke:#c00;stroke-width:2;"/>
   <line x1="131.5" y1="447" x2="135.03553390593" y2="443.46446609407" style="stroke:#c00;stroke-width:2;"/>
   <line x1="134" y1="447" x2="130.46446609407" y2="450.53553390593" style="stroke:#c00;stroke-width:2;"/>
   <line x1="134" y1="447" x2="130.46446609407" y2="443.46446609407" style="stroke:#c00;stroke-width:2;"/>
   <line x1="139" y1="527" x2="129" y2="527" style="stroke:#c00;stroke-width:1;"/>
   <line x1="79" y1="251" x2="89" y2="251" style="stroke:#c00;stroke-width:1;"/>
   <line x1="129" y1="527" x2="79" y2="251" style="stroke:#c00;stroke-width:1;"/>
   <line x1="131.5" y1="527" x2="135.03553390593" y2="530.53553390593" style="stroke:#c00;stroke-width:2;"/>
   <line x1="131.5" y1="527" x2="135.03553390593" y2="523.46446609407" style="stroke:#c00;stroke-width:2;"/>
   <line x1="84" y1="251" x2="80.464466094067" y2="254.53553390593" style="stroke:#c00;stroke-width:2;"/>
   <line x1="84" y1="251" x2="80.464466094067" y2="247.46446609407" style="stroke:#c00;stroke-width:2;"/>
   <line x1="89" y1="251" x2="79" y2="251" style="stroke:#0bf;stroke-width:1;"/>
   <line x1="79" y1="251" x2="89" y2="251" style="stroke:#0bf;stroke-width:1;"/>
   <line x1="79" y1="251" x2="79" y2="251" style="stroke:#0bf;stroke-width:1;"/>
   <line x1="81.5" y1="251" x2="85.035533905933" y2="254.53553390593" style="stroke:#0bf;stroke-width:2;"/>
   <line x1="81.5" y1="251" x2="85.035533905933" y2="247.46446609407" style="stroke:#0bf;stroke-width:2;"/>
   <line x1="84" y1="251" x2="80.464466094067" y2="254.53553390593" style="stroke:#0bf;stroke-width:2;"/>
   <line x1="84" y1="251" x2="80.464466094067" y2="247.46446609407" style="stroke:#0bf;stroke-width:2;"/>
   <line x1="221" y1="331" x2="231" y2="331" style="stroke:#c00;stroke-width:1;"/>
   <line x1="345" y1="364" x2="355" y2="364" style="stroke:#c00;stroke-width:1;"/>
   <line x1="231" y1="331" x2="345" y2="364" style="stroke:#c00;stroke-width:1;"/>
   <line x1="228.5" y1="331" x2="224.96446609407" y2="334.53553390593" style="stroke:#c00;stroke-width:2;"/>
   <line x1="228.5" y1="331" x2="224.96446609407" y2="327.46446609407" style="stroke:#c00;stroke-width:2;"/>
   <line x1="350" y1="364" x2="346.46446609407" y2="367.53553390593" style="stroke:#c00;stroke-width:2;"/>
   <line x1="350" y1="364" x2="346.46446609407" y2="360.46446609407" style="stroke:#c00;stroke-width:2;"/>
   <rect width="132" height="20" x="658" y="506" style="fill:#007;stroke:black;"/>
   <text width="132" height="20" x="663" y="520" style="fill:#fff;" font-family="Arial" font-size="16px"> cahierdescharges</text>
   <rect width="132" height="20" x="658" y="526" style="fill:#aea;stroke:black;"/>
   <text width="132" height="20" x="663" y="540" style="fill:black;" font-family="Arial" font-size="16px">id_cdc</text>
   <rect width="132" height="20" x="658" y="546" style="fill:none;stroke:black;"/>
   <text width="132" height="20" x="663" y="560" style="fill:black;" font-family="Arial" font-size="16px">tarif</text>
   <rect width="132" height="20" x="658" y="566" style="fill:none;stroke:black;"/>
   <text width="132" height="20" x="663" y="580" style="fill:black;" font-family="Arial" font-size="16px">delai</text>
   <rect width="132" height="20" x="658" y="586" style="fill:none;stroke:black;"/>
   <text width="132" height="20" x="663" y="600" style="fill:black;" font-family="Arial" font-size="16px">id_contrat</text>
   <rect width="132" height="20" x="80" y="50" style="fill:#007;stroke:black;"/>
   <text width="132" height="20" x="85" y="64" style="fill:#fff;" font-family="Arial" font-size="16px"> competence</text>
   <rect width="132" height="20" x="80" y="70" style="fill:#aea;stroke:black;"/>
   <text width="132" height="20" x="85" y="84" style="fill:black;" font-family="Arial" font-size="16px">id_competence</text>
   <rect width="132" height="20" x="80" y="90" style="fill:none;stroke:black;"/>
   <text width="132" height="20" x="85" y="104" style="fill:black;" font-family="Arial" font-size="16px">categorie</text>
   <rect width="132" height="20" x="80" y="110" style="fill:none;stroke:black;"/>
   <text width="132" height="20" x="85" y="124" style="fill:black;" font-family="Arial" font-size="16px">description</text>
   <rect width="132" height="20" x="80" y="130" style="fill:none;stroke:black;"/>
   <text width="132" height="20" x="85" y="144" style="fill:black;" font-family="Arial" font-size="16px">id_freelancer</text>
   <rect width="132" height="20" x="638" y="149" style="fill:#007;stroke:black;"/>
   <text width="132" height="20" x="643" y="163" style="fill:#fff;" font-family="Arial" font-size="16px"> contrat</text>
   <rect width="132" height="20" x="638" y="169" style="fill:#aea;stroke:black;"/>
   <text width="132" height="20" x="643" y="183" style="fill:black;" font-family="Arial" font-size="16px">id_contrat</text>
   <rect width="132" height="20" x="638" y="189" style="fill:none;stroke:black;"/>
   <text width="132" height="20" x="643" y="203" style="fill:black;" font-family="Arial" font-size="16px">tarif</text>
   <rect width="132" height="20" x="638" y="209" style="fill:none;stroke:black;"/>
   <text width="132" height="20" x="643" y="223" style="fill:black;" font-family="Arial" font-size="16px">delai</text>
   <rect width="132" height="20" x="638" y="229" style="fill:none;stroke:black;"/>
   <text width="132" height="20" x="643" y="243" style="fill:black;" font-family="Arial" font-size="16px">date_sign</text>
   <rect width="132" height="20" x="638" y="249" style="fill:none;stroke:black;"/>
   <text width="132" height="20" x="643" y="263" style="fill:black;" font-family="Arial" font-size="16px">id_paiement</text>
   <rect width="132" height="20" x="847" y="306" style="fill:#007;stroke:black;"/>
   <text width="132" height="20" x="852" y="320" style="fill:#fff;" font-family="Arial" font-size="16px"> freelancer</text>
   <rect width="132" height="20" x="847" y="326" style="fill:#aea;stroke:black;"/>
   <text width="132" height="20" x="852" y="340" style="fill:black;" font-family="Arial" font-size="16px">id_freelancer</text>
   <rect width="132" height="20" x="847" y="346" style="fill:none;stroke:black;"/>
   <text width="132" height="20" x="852" y="360" style="fill:black;" font-family="Arial" font-size="16px">url_cv</text>
   <rect width="132" height="20" x="847" y="366" style="fill:none;stroke:black;"/>
   <text width="132" height="20" x="852" y="380" style="fill:black;" font-family="Arial" font-size="16px">url_photo</text>
   <rect width="132" height="20" x="847" y="386" style="fill:none;stroke:black;"/>
   <text width="132" height="20" x="852" y="400" style="fill:black;" font-family="Arial" font-size="16px">age</text>
   <rect width="132" height="20" x="847" y="406" style="fill:none;stroke:black;"/>
   <text width="132" height="20" x="852" y="420" style="fill:black;" font-family="Arial" font-size="16px">id_user</text>
   <rect width="132" height="20" x="428" y="15" style="fill:#007;stroke:black;"/>
   <text width="132" height="20" x="433" y="29" style="fill:#fff;" font-family="Arial" font-size="16px"> message</text>
   <rect width="132" height="20" x="428" y="35" style="fill:#aea;stroke:black;"/>
   <text width="132" height="20" x="433" y="49" style="fill:black;" font-family="Arial" font-size="16px">id_message</text>
   <rect width="132" height="20" x="428" y="55" style="fill:none;stroke:black;"/>
   <text width="132" height="20" x="433" y="69" style="fill:black;" font-family="Arial" font-size="16px">type</text>
   <rect width="132" height="20" x="428" y="75" style="fill:none;stroke:black;"/>
   <text width="132" height="20" x="433" y="89" style="fill:black;" font-family="Arial" font-size="16px">sujet</text>
   <rect width="132" height="20" x="428" y="95" style="fill:none;stroke:black;"/>
   <text width="132" height="20" x="433" y="109" style="fill:black;" font-family="Arial" font-size="16px">contenu</text>
   <rect width="132" height="20" x="428" y="115" style="fill:none;stroke:black;"/>
   <text width="132" height="20" x="433" y="129" style="fill:black;" font-family="Arial" font-size="16px">date</text>
   <rect width="132" height="20" x="428" y="135" style="fill:none;stroke:black;"/>
   <text width="132" height="20" x="433" y="149" style="fill:black;" font-family="Arial" font-size="16px">id_user_send</text>
   <rect width="132" height="20" x="428" y="155" style="fill:none;stroke:black;"/>
   <text width="132" height="20" x="433" y="169" style="fill:black;" font-family="Arial" font-size="16px">id_user_recu</text>
   <rect width="132" height="20" x="1165" y="454" style="fill:#007;stroke:black;"/>
   <text width="132" height="20" x="1170" y="468" style="fill:#fff;" font-family="Arial" font-size="16px"> paiement</text>
   <rect width="132" height="20" x="1165" y="474" style="fill:#aea;stroke:black;"/>
   <text width="132" height="20" x="1170" y="488" style="fill:black;" font-family="Arial" font-size="16px">id_paiement</text>
   <rect width="132" height="20" x="1165" y="494" style="fill:none;stroke:black;"/>
   <text width="132" height="20" x="1170" y="508" style="fill:black;" font-family="Arial" font-size="16px">etat</text>
   <rect width="132" height="20" x="1165" y="514" style="fill:none;stroke:black;"/>
   <text width="132" height="20" x="1170" y="528" style="fill:black;" font-family="Arial" font-size="16px">dp_societe</text>
   <rect width="132" height="20" x="1165" y="534" style="fill:none;stroke:black;"/>
   <text width="132" height="20" x="1170" y="548" style="fill:black;" font-family="Arial" font-size="16px">dp_freelancer</text>
   <rect width="132" height="20" x="139" y="417" style="fill:#007;stroke:black;"/>
   <text width="132" height="20" x="144" y="431" style="fill:#fff;" font-family="Arial" font-size="16px"> projet</text>
   <rect width="132" height="20" x="139" y="437" style="fill:#aea;stroke:black;"/>
   <text width="132" height="20" x="144" y="451" style="fill:black;" font-family="Arial" font-size="16px">id_projet</text>
   <rect width="132" height="20" x="139" y="457" style="fill:none;stroke:black;"/>
   <text width="132" height="20" x="144" y="471" style="fill:black;" font-family="Arial" font-size="16px">prix</text>
   <rect width="132" height="20" x="139" y="477" style="fill:none;stroke:black;"/>
   <text width="132" height="20" x="144" y="491" style="fill:black;" font-family="Arial" font-size="16px">etape</text>
   <rect width="132" height="20" x="139" y="497" style="fill:none;stroke:black;"/>
   <text width="132" height="20" x="144" y="511" style="fill:black;" font-family="Arial" font-size="16px">description</text>
   <rect width="132" height="20" x="139" y="517" style="fill:none;stroke:black;"/>
   <text width="132" height="20" x="144" y="531" style="fill:black;" font-family="Arial" font-size="16px">id_societe</text>
   <rect width="132" height="20" x="139" y="537" style="fill:none;stroke:black;"/>
   <text width="132" height="20" x="144" y="551" style="fill:black;" font-family="Arial" font-size="16px">id_cdc</text>
   <rect width="132" height="20" x="89" y="221" style="fill:#007;stroke:black;"/>
   <text width="132" height="20" x="94" y="235" style="fill:#fff;" font-family="Arial" font-size="16px"> societe</text>
   <rect width="132" height="20" x="89" y="241" style="fill:#aea;stroke:black;"/>
   <text width="132" height="20" x="94" y="255" style="fill:black;" font-family="Arial" font-size="16px">id_societe</text>
   <rect width="132" height="20" x="89" y="261" style="fill:none;stroke:black;"/>
   <text width="132" height="20" x="94" y="275" style="fill:black;" font-family="Arial" font-size="16px">siret</text>
   <rect width="132" height="20" x="89" y="281" style="fill:none;stroke:black;"/>
   <text width="132" height="20" x="94" y="295" style="fill:black;" font-family="Arial" font-size="16px">denomination</text>
   <rect width="132" height="20" x="89" y="301" style="fill:none;stroke:black;"/>
   <text width="132" height="20" x="94" y="315" style="fill:black;" font-family="Arial" font-size="16px">description</text>
   <rect width="132" height="20" x="89" y="321" style="fill:none;stroke:black;"/>
   <text width="132" height="20" x="94" y="335" style="fill:black;" font-family="Arial" font-size="16px">id_user</text>
   <rect width="132" height="20" x="865" y="61" style="fill:#007;stroke:black;"/>
   <text width="132" height="20" x="870" y="75" style="fill:#fff;" font-family="Arial" font-size="16px"> test</text>
   <rect width="132" height="20" x="865" y="81" style="fill:#aea;stroke:black;"/>
   <text width="132" height="20" x="870" y="95" style="fill:black;" font-family="Arial" font-size="16px">id_test</text>
   <rect width="132" height="20" x="865" y="101" style="fill:none;stroke:black;"/>
   <text width="132" height="20" x="870" y="115" style="fill:black;" font-family="Arial" font-size="16px">description</text>
   <rect width="132" height="20" x="865" y="121" style="fill:none;stroke:black;"/>
   <text width="132" height="20" x="870" y="135" style="fill:black;" font-family="Arial" font-size="16px">url_test</text>
   <rect width="132" height="20" x="865" y="141" style="fill:none;stroke:black;"/>
   <text width="132" height="20" x="870" y="155" style="fill:black;" font-family="Arial" font-size="16px">resultat</text>
   <rect width="132" height="20" x="865" y="161" style="fill:none;stroke:black;"/>
   <text width="132" height="20" x="870" y="175" style="fill:black;" font-family="Arial" font-size="16px">date_passage</text>
   <rect width="132" height="20" x="865" y="181" style="fill:none;stroke:black;"/>
   <text width="132" height="20" x="870" y="195" style="fill:black;" font-family="Arial" font-size="16px">id_freelancer</text>
   <rect width="132" height="20" x="865" y="201" style="fill:none;stroke:black;"/>
   <text width="132" height="20" x="870" y="215" style="fill:black;" font-family="Arial" font-size="16px">id_competence</text>
   <rect width="132" height="20" x="355" y="334" style="fill:#007;stroke:black;"/>
   <text width="132" height="20" x="360" y="348" style="fill:#fff;" font-family="Arial" font-size="16px"> user</text>
   <rect width="132" height="20" x="355" y="354" style="fill:#aea;stroke:black;"/>
   <text width="132" height="20" x="360" y="368" style="fill:black;" font-family="Arial" font-size="16px">id_user</text>
   <rect width="132" height="20" x="355" y="374" style="fill:none;stroke:black;"/>
   <text width="132" height="20" x="360" y="388" style="fill:black;" font-family="Arial" font-size="16px">pseudo</text>
   <rect width="132" height="20" x="355" y="394" style="fill:none;stroke:black;"/>
   <text width="132" height="20" x="360" y="408" style="fill:black;" font-family="Arial" font-size="16px">role</text>
   <rect width="132" height="20" x="355" y="414" style="fill:none;stroke:black;"/>
   <text width="132" height="20" x="360" y="428" style="fill:black;" font-family="Arial" font-size="16px">email</text>
   <rect width="132" height="20" x="355" y="434" style="fill:none;stroke:black;"/>
   <text width="132" height="20" x="360" y="448" style="fill:black;" font-family="Arial" font-size="16px">nomuser</text>
   <rect width="132" height="20" x="355" y="454" style="fill:none;stroke:black;"/>
   <text width="132" height="20" x="360" y="468" style="fill:black;" font-family="Arial" font-size="16px">prenomuser</text>
   <rect width="132" height="20" x="355" y="474" style="fill:none;stroke:black;"/>
   <text width="132" height="20" x="360" y="488" style="fill:black;" font-family="Arial" font-size="16px">adresse</text>
   <rect width="132" height="20" x="355" y="494" style="fill:none;stroke:black;"/>
   <text width="132" height="20" x="360" y="508" style="fill:black;" font-family="Arial" font-size="16px">telephone</text>
   <rect width="132" height="20" x="355" y="514" style="fill:none;stroke:black;"/>
   <text width="132" height="20" x="360" y="528" style="fill:black;" font-family="Arial" font-size="16px">motdepasse</text>
   <rect width="132" height="20" x="355" y="534" style="fill:none;stroke:black;"/>
   <text width="132" height="20" x="360" y="548" style="fill:black;" font-family="Arial" font-size="16px">salt</text>
   <rect width="132" height="20" x="355" y="554" style="fill:none;stroke:black;"/>
   <text width="132" height="20" x="360" y="568" style="fill:black;" font-family="Arial" font-size="16px">date_insc</text>
   <rect width="132" height="20" x="355" y="574" style="fill:none;stroke:black;"/>
   <text width="132" height="20" x="360" y="588" style="fill:black;" font-family="Arial" font-size="16px">date_modif</text>
   <rect width="132" height="20" x="355" y="594" style="fill:none;stroke:black;"/>
   <text width="132" height="20" x="360" y="608" style="fill:black;" font-family="Arial" font-size="16px">statut_connect</text>
</svg>
